<mxfile host="app.diagrams.net" modified="2022-05-04T15:05:50.957Z" agent="5.0 (Windows NT 10.0; Win64; x64) AppleWebKit/537.36 (KHTML, like Gecko) Chrome/100.0.4896.127 Safari/537.36" etag="iPKUQNtJRKBm4N8NR6th" version="17.5.1" type="github">
  <diagram id="HQLMvgeJEX95FwYb_6-J" name="Page-1">
    <mxGraphModel dx="544" dy="233" grid="1" gridSize="10" guides="1" tooltips="1" connect="1" arrows="1" fold="1" page="1" pageScale="1" pageWidth="827" pageHeight="1169" math="0" shadow="0">
      <root>
        <mxCell id="0" />
        <mxCell id="1" parent="0" />
        <mxCell id="yd4YkLDA-Fa7DHEL_bc_-25" value="" style="shape=internalStorage;whiteSpace=wrap;html=1;backgroundOutline=1;dx=100;dy=20;shadow=1;" vertex="1" parent="1">
          <mxGeometry x="210" y="110" width="300" height="260" as="geometry" />
        </mxCell>
        <mxCell id="yd4YkLDA-Fa7DHEL_bc_-29" value="" style="endArrow=none;html=1;rounded=0;" edge="1" parent="1">
          <mxGeometry width="50" height="50" relative="1" as="geometry">
            <mxPoint x="414" y="280" as="sourcePoint" />
            <mxPoint x="414" y="110" as="targetPoint" />
            <Array as="points">
              <mxPoint x="414" y="370" />
              <mxPoint x="414" y="160" />
            </Array>
          </mxGeometry>
        </mxCell>
        <mxCell id="yd4YkLDA-Fa7DHEL_bc_-36" value="manufacturer" style="text;html=1;resizable=0;autosize=1;align=center;verticalAlign=middle;points=[];fillColor=none;strokeColor=none;rounded=0;shadow=0;fontSize=9;" vertex="1" parent="1">
          <mxGeometry x="220" y="110" width="70" height="20" as="geometry" />
        </mxCell>
        <mxCell id="yd4YkLDA-Fa7DHEL_bc_-37" value="Interface" style="text;html=1;resizable=0;autosize=1;align=center;verticalAlign=middle;points=[];fillColor=none;strokeColor=none;rounded=0;shadow=0;fontSize=9;" vertex="1" parent="1">
          <mxGeometry x="330" y="110" width="50" height="20" as="geometry" />
        </mxCell>
        <mxCell id="yd4YkLDA-Fa7DHEL_bc_-38" value="System" style="text;html=1;resizable=0;autosize=1;align=center;verticalAlign=middle;points=[];fillColor=none;strokeColor=none;rounded=0;shadow=0;fontSize=9;" vertex="1" parent="1">
          <mxGeometry x="430" y="110" width="50" height="20" as="geometry" />
        </mxCell>
        <mxCell id="yd4YkLDA-Fa7DHEL_bc_-39" value="" style="ellipse;whiteSpace=wrap;html=1;aspect=fixed;shadow=0;fontSize=9;" vertex="1" parent="1">
          <mxGeometry x="245" y="140" width="20" height="20" as="geometry" />
        </mxCell>
        <mxCell id="yd4YkLDA-Fa7DHEL_bc_-41" value="" style="endArrow=classic;html=1;rounded=0;fontSize=9;" edge="1" parent="1">
          <mxGeometry width="50" height="50" relative="1" as="geometry">
            <mxPoint x="254.79000000000002" y="160" as="sourcePoint" />
            <mxPoint x="255" y="180" as="targetPoint" />
          </mxGeometry>
        </mxCell>
        <mxCell id="yd4YkLDA-Fa7DHEL_bc_-42" value="" style="rounded=1;whiteSpace=wrap;html=1;shadow=0;fontSize=9;" vertex="1" parent="1">
          <mxGeometry x="227.5" y="180" width="52.5" height="20" as="geometry" />
        </mxCell>
      </root>
    </mxGraphModel>
  </diagram>
</mxfile>
